<svg width="15" height="14" viewBox="0 0 15 14" fill="none" xmlns="http://www.w3.org/2000/svg">
<path d="M3.79959 11.1485C2.9683 11.0667 2.34557 10.817 1.92793 10.3994C1.17883 9.65035 1.17883 8.44464 1.17883 6.03336V5.71366C1.17883 3.30235 1.17883 2.09671 1.92793 1.34761C2.67703 0.598511 3.88268 0.598511 6.29398 0.598511H8.85156C11.2628 0.598511 12.4685 0.598511 13.2176 1.34761C13.9667 2.09671 13.9667 3.30235 13.9667 5.71366V6.03336C13.9667 8.44464 13.9667 9.65035 13.2176 10.3994C12.4685 11.1485 11.2628 11.1485 8.85156 11.1485C8.49318 11.1565 8.20775 11.1837 7.92738 11.2476C7.16113 11.424 6.45159 11.8161 5.75042 12.158C4.75131 12.6452 4.25176 12.8888 3.93826 12.6607C3.33851 12.2141 3.92474 10.83 4.05611 10.1894" stroke="#1A2943" stroke-width="0.959091" stroke-linecap="round"/>
</svg>
